# xmcd CD database file
#
# Track frame offsets:
#	183
#	17025
#	28190
#	48983
#	59350
#	77780
#	96943
#	124118
#	142983
#	154885
#	173243
#	188208
#
# Disc length: 2726 seconds
#
# Revision: 0
# Processed by: cddbd v1.5.1PL0 Copyright (c) Steve Scherf et al.
# Submitted via: CDex 1.51
#
DISCID=9f0aa40c
DTITLE=Thistlethwaite, Antony - Aesop Wrote A Fable
DYEAR=1993
DGENRE=Country
TTITLE0=Muddy Waterboy
TTITLE1=Let Your Conscience Be Your Guide
TTITLE2=Love That Burns
TTITLE3=Aesop Wrote A Fable
TTITLE4=I Just Want to Make Love To You
TTITLE5=Jenny
TTITLE6=It Don't Make Sense (You Can't Make Peace)
TTITLE7=Howling Tom Cat
TTITLE8=Good Morning Mr. Customs Man
TTITLE9=Here In My Arms
TTITLE10=Flick-Knife
TTITLE11=Blue Stars
EXTD=YEAR: 1993
EXTT0=
EXTT1=
EXTT2=
EXTT3=
EXTT4=
EXTT5=
EXTT6=
EXTT7=
EXTT8=
EXTT9=
EXTT10=
EXTT11=
PLAYORDER=
